<svg width="120" height="58" viewBox="0 0 120 58" fill="none" xmlns="http://www.w3.org/2000/svg">
<g clip-path="url(#clip0_190_1040)">
<path d="M4.59983 5.28172C4.59983 3.91865 4.59807 2.66124 4.59983 1.40559C4.6016 0.239763 5.0084 -0.0966019 6.15662 0.104161C14.483 1.56585 22.3462 4.28319 29.5578 8.75632C29.8431 8.93419 30.0386 9.01167 30.3961 8.78273C36.8433 4.66006 43.9158 2.11179 51.3599 0.514491C52.1576 0.343667 52.9642 0.216869 53.7655 0.0601337C54.9172 -0.165284 55.442 0.241524 55.4491 1.39503C55.4544 2.3918 55.5143 3.39385 55.4297 4.38357C55.3646 5.14964 55.6956 5.17429 56.2715 5.07391C57.0763 4.93303 57.8829 4.78157 58.6965 4.72522C59.6545 4.6583 60.0226 5.04574 60.0226 6.01257C60.0244 20.4023 60.0244 34.7938 60.0226 49.1835C60.0226 50.1645 59.5647 50.6399 58.575 50.6294C51.6117 50.5625 44.777 51.6332 37.9616 52.9012C37.6746 52.954 37.3858 52.9892 37.0987 53.0421C36.5017 53.1512 35.748 53.0843 35.3552 53.4295C34.9748 53.7623 35.2971 54.539 35.2179 55.1131C35.1016 55.9566 34.6209 56.5677 33.7668 56.6206C31.2819 56.7738 28.7882 56.7632 26.3033 56.6276C25.2766 56.5712 24.6919 55.777 24.7906 54.5425C24.8663 53.5897 24.5563 53.2921 23.6423 53.1336C16.2423 51.8533 8.85107 50.5167 1.2943 50.6294C0.322185 50.6435 0.00519167 50.2613 0.00519167 49.1307C0.00166952 45.0274 0.00871382 40.9241 0.00871382 36.8208C0.00519167 26.6506 0.0034306 16.4804 -9.15527e-05 6.31019C-9.15527e-05 5.00699 0.493009 4.56144 1.78035 4.73755C2.24176 4.80095 2.70844 4.86082 3.15575 4.9841C3.61187 5.11089 4.09265 4.99643 4.59983 5.27996V5.28172ZM25.6394 51.4694C25.7856 51.4906 25.9423 51.6209 26.062 51.4342C26.0673 51.4272 25.9018 51.3109 25.8173 51.2458C24.1847 50.2384 22.5064 49.3174 20.7559 48.5284C16.0274 46.3958 11.114 44.9446 5.93297 44.4586C5.02425 44.374 4.60864 43.895 4.60864 42.9599C4.60512 36.2502 4.60512 29.5388 4.60336 22.8291C4.60336 17.9069 4.59631 12.9829 4.6104 8.06069C4.6104 7.52357 4.57694 7.14846 3.89541 7.17664C3.552 7.19072 3.20154 7.08858 2.85813 7.0199C2.30868 6.91247 2.05684 7.00053 2.07093 7.68559C2.12024 10.0877 2.08678 12.4916 2.08678 14.8937C2.08678 25.8528 2.09206 36.812 2.07269 47.7729C2.07269 48.3805 2.2171 48.5319 2.82643 48.5443C4.40612 48.5777 5.98404 48.6975 7.5602 48.8032C10.3304 48.9898 13.0812 49.3385 15.8267 49.7524C19.1111 50.2472 22.3937 50.7562 25.6394 51.4694ZM33.8513 51.5539C37.4139 50.7861 41.0083 50.2067 44.6114 49.6766C48.7218 49.0708 52.8462 48.6006 57.0041 48.5513C57.8125 48.5407 57.9287 48.3101 57.9269 47.5827C57.904 34.3394 57.9111 21.0962 57.9111 7.85289C57.9111 7.56407 57.9111 7.27526 57.9111 6.93537C57.3264 7.01462 56.8086 7.15374 56.2962 7.13789C55.5213 7.11324 55.4315 7.4813 55.435 8.14875C55.4597 14.9166 55.4491 21.6844 55.4491 28.4539C55.4491 33.2 55.4491 37.9479 55.4491 42.694C55.4491 43.9461 55.0793 44.3406 53.8078 44.4656C53.3129 44.5149 52.8198 44.5625 52.3285 44.6329C45.6487 45.5821 39.4374 47.8029 33.7491 51.4536L33.6576 51.6367C33.7509 51.6825 33.8143 51.6508 33.8513 51.5575V51.5539ZM53.3446 22.3184H53.3411C53.3411 15.8711 53.3411 9.422 53.3393 2.97471C53.3393 2.61017 53.5278 2.13468 52.774 2.29141C46.1612 3.66329 39.8037 5.74312 33.8988 9.07683C33.0112 9.57698 32.1642 10.1476 31.2784 10.6512C30.8134 10.9154 31.0142 11.324 31.0054 11.6674C30.9931 12.1129 31.384 11.8893 31.6024 11.9368C32.2012 12.0636 32.8087 12.1534 33.4022 12.2943C41.4345 14.1963 46.7124 22.5878 44.9531 30.5743C43.7855 35.8804 40.568 39.4624 35.7585 41.7483C34.797 42.2044 34.3303 42.0072 33.964 40.9576C32.9531 38.0518 31.9616 35.1407 31.111 32.1821C30.8751 31.3615 30.9825 30.842 31.7679 30.3647C33.2279 29.4771 33.7615 27.7794 33.1926 26.2596C32.6573 24.8296 31.3823 24.016 29.7621 24.0689C28.3479 24.1146 27.1486 25.0832 26.7101 26.5344C26.2998 27.8904 26.844 29.4894 28.0855 30.2995C28.7565 30.7381 29.2144 31.1255 28.8974 32.0448C27.883 34.9805 26.9373 37.9408 25.9405 40.8836C25.5918 41.9156 25.0177 42.1269 24.0491 41.669C17.1598 38.411 13.6042 31.7137 15.0113 24.2767C16.2335 17.8118 21.5713 12.8279 28.2546 11.9333C28.4747 11.9034 28.8674 12.1182 28.871 11.6903C28.8745 11.3469 29.0946 10.9224 28.6667 10.6495C28.4694 10.5244 28.281 10.3871 28.0802 10.2691C23.9893 7.85817 19.7292 5.87344 15.1575 4.48924C12.6832 3.73902 10.1983 3.06805 7.69404 2.44815C6.67966 2.19632 6.67086 2.23682 6.67086 3.33221C6.67086 15.9063 6.67438 28.4804 6.67438 41.0544C6.67438 42.3312 6.67086 42.3365 7.89833 42.532C15.7474 43.7806 23.0048 46.4997 29.4398 51.2387C29.8131 51.5134 30.0438 51.4958 30.4049 51.2299C32.0022 50.0535 33.6699 48.9828 35.4081 48.0212C40.8199 45.0292 46.6578 43.335 52.7335 42.4193C53.4309 42.3136 53.3428 42.0089 53.3428 41.5775C53.3428 35.1583 53.3428 28.7392 53.3428 22.3219L53.3446 22.3184ZM35.6018 39.4871C41.9381 36.3101 44.2275 30.2802 42.8416 24.2274C41.8536 19.9074 39.1556 16.8361 35.0594 15.0081C31.5284 13.4337 27.9781 13.4196 24.5739 15.1191C19.2009 17.8012 16.4448 22.2391 16.7706 28.2972C17.033 33.1595 19.5302 36.7363 23.7093 39.1842C24.2076 39.4765 24.3186 39.2687 24.4489 38.8584C25.1181 36.7486 25.7785 34.6353 26.4917 32.5379C26.645 32.0853 26.5111 31.8916 26.2135 31.5816C24.7536 30.053 24.0069 28.3289 24.5986 26.1364C25.4615 22.9488 28.7354 21.1719 31.863 22.2919C35.8096 23.7061 36.8275 28.6758 33.7685 31.5834C33.5043 31.8334 33.1469 31.9937 33.3177 32.5044C34.0961 34.8237 34.841 37.1536 35.6018 39.4853V39.4871Z" fill="#1E1B4B"/>
<path d="M53.3445 22.3163C53.3445 28.7354 53.3445 35.1546 53.3445 41.5719C53.3445 42.0034 53.4326 42.308 52.7352 42.4137C46.6577 43.3295 40.8215 45.0236 35.4097 48.0157C33.6715 48.9772 32.0038 50.0462 30.4065 51.2244C30.0455 51.4903 29.8148 51.5097 29.4414 51.2332C23.0047 46.4941 15.7491 43.775 7.89997 42.5264C6.67426 42.3309 6.67602 42.3257 6.67602 41.0489C6.67602 28.4748 6.67426 15.9007 6.6725 3.32666C6.6725 2.23127 6.68131 2.19253 7.69569 2.4426C10.1999 3.0625 12.6848 3.73347 15.1591 4.48369C19.7309 5.86965 23.9909 7.85438 28.0819 10.2635C28.2826 10.3815 28.4711 10.5189 28.6683 10.6439C29.0963 10.9169 28.8761 11.3395 28.8726 11.6847C28.8691 12.1109 28.4764 11.8978 28.2562 11.9277C21.5747 12.8224 16.2369 17.8062 15.0129 24.2711C13.6076 31.7064 17.1615 38.4055 24.0508 41.6635C25.0194 42.1214 25.5917 41.91 25.9422 40.878C26.9389 37.9353 27.8829 34.9749 28.899 32.0392C29.2178 31.1199 28.7599 30.7325 28.0872 30.294C26.8456 29.4821 26.3014 27.8848 26.7118 26.5288C27.1503 25.0777 28.3496 24.1091 29.7637 24.0633C31.3839 24.0105 32.6589 24.8241 33.1943 26.2541C33.7631 27.7739 33.2295 29.4716 31.7696 30.3592C30.9841 30.8364 30.8767 31.3559 31.1127 32.1766C31.9651 35.1352 32.9548 38.0462 33.9656 40.952C34.3302 42.0016 34.7969 42.1989 35.7602 41.7427C40.5697 39.4569 43.7871 35.8748 44.9547 30.5687C46.7123 22.5822 41.4343 14.1907 33.4038 12.2888C32.8086 12.1479 32.201 12.0598 31.604 11.9313C31.3857 11.8855 30.9947 12.1074 31.007 11.6618C31.0158 11.3184 30.8168 10.9098 31.28 10.6457C32.1658 10.142 33.0129 9.57143 33.9005 9.07129C39.8071 5.73757 46.1628 3.65774 52.7757 2.28587C53.5276 2.12913 53.3392 2.60462 53.341 2.96916C53.3445 9.41646 53.3427 15.8655 53.3427 22.3128H53.3463L53.3445 22.3163Z" fill="white"/>
<path d="M35.6019 39.4851C34.8429 37.1517 34.0962 34.8235 33.3178 32.5042C33.147 31.9953 33.5063 31.835 33.7687 31.5832C36.8277 28.6739 35.8098 23.7041 31.8632 22.2917C28.7373 21.1717 25.4617 22.9504 24.5988 26.1362C24.0053 28.3287 24.752 30.0528 26.2137 31.5814C26.5113 31.8914 26.6451 32.0851 26.4919 32.5377C25.7804 34.6333 25.12 36.7466 24.4491 38.8582C24.3187 39.2685 24.2078 39.4745 23.7094 39.184C19.5304 36.7361 17.0332 33.1576 16.7708 28.297C16.4432 22.2371 19.2011 17.801 24.5741 15.1189C27.9783 13.4194 31.5286 13.4335 35.0595 15.0079C39.1558 16.8342 41.852 19.9072 42.8417 24.2272C44.2277 30.28 41.9383 36.3099 35.6019 39.4869V39.4851Z" fill="#6366F1"/>
<path d="M33.7476 51.4498C39.4359 47.7991 45.6489 45.5784 52.3269 44.6292C52.8183 44.5588 53.3131 44.5112 53.8062 44.4619C55.0777 44.3351 55.4475 43.9424 55.4475 42.6903C55.4475 37.9442 55.4475 33.1963 55.4475 28.4502C55.4475 21.6824 55.4563 14.9128 55.4335 8.14502C55.4317 7.47757 55.5197 7.10951 56.2946 7.13416C56.8071 7.15001 57.3231 7.01089 57.9095 6.93164C57.9095 7.27153 57.9095 7.56034 57.9095 7.84916C57.9095 21.0924 57.9025 34.3357 57.9254 47.579C57.9254 48.3081 57.8109 48.5388 57.0026 48.5476C52.8447 48.5969 48.7202 49.0671 44.6099 49.6729C41.0067 50.203 37.4124 50.7842 33.8497 51.5502C33.8145 51.515 33.781 51.4815 33.7458 51.4463L33.7476 51.4498Z" fill="white"/>
<path d="M25.6394 51.4674C22.3937 50.7524 19.1111 50.2452 15.8267 49.7503C13.0812 49.3365 10.3304 48.9878 7.56021 48.8011C5.98405 48.6954 4.40612 48.5757 2.82644 48.5422C2.21711 48.5299 2.0727 48.3767 2.0727 47.7709C2.09207 36.8117 2.08679 25.8525 2.08679 14.8916C2.08679 12.4895 2.12025 10.0856 2.07094 7.68353C2.05685 6.99848 2.30869 6.90866 2.85814 7.01785C3.20155 7.08477 3.552 7.18691 3.89541 7.17458C4.57695 7.14817 4.61217 7.52151 4.61041 8.05864C4.59456 12.9808 4.6016 17.9048 4.60337 22.827C4.60337 29.5367 4.60337 36.2482 4.60865 42.9579C4.60865 43.8912 5.02426 44.3702 5.93298 44.4565C11.1141 44.9426 16.0275 46.3937 20.7559 48.5264C22.5064 49.3153 24.1848 50.2364 25.8173 51.2437C25.7574 51.3177 25.6993 51.3934 25.6394 51.4674Z" fill="white"/>
<path d="M25.8157 51.2438C25.902 51.3089 26.0658 51.4252 26.0605 51.4322C25.9407 51.6189 25.784 51.4886 25.6378 51.4674C25.6977 51.3935 25.7558 51.3177 25.8157 51.2438Z" fill="#F2F2F2"/>
<path d="M33.8514 51.5519C33.8145 51.6452 33.7511 51.6769 33.6577 51.6311C33.6877 51.5695 33.7176 51.5096 33.7493 51.448C33.7845 51.4832 33.818 51.5167 33.8532 51.5519H33.8514Z" fill="#F2F2F2"/>
</g>
<path d="M71.115 15.7952C70.0728 15.7952 69.1838 15.5315 68.4481 15.0043C67.7246 14.477 67.1729 13.7045 66.7928 12.6868C66.4127 11.6691 66.2226 10.4368 66.2226 8.98994C66.2226 7.51855 66.4127 6.27399 66.7928 5.25627C67.1729 4.23856 67.7246 3.46608 68.4481 2.93882C69.1838 2.41157 70.0728 2.14795 71.115 2.14795C72.1572 2.14795 73.0401 2.41157 73.7635 2.93882C74.4992 3.46608 75.0571 4.23856 75.4372 5.25627C75.8173 6.27399 76.0074 7.51855 76.0074 8.98994C76.0074 10.4368 75.8173 11.6691 75.4372 12.6868C75.0571 13.7045 74.4992 14.477 73.7635 15.0043C73.0401 15.5315 72.1572 15.7952 71.115 15.7952ZM71.115 13.7352C71.6668 13.7352 72.1327 13.5635 72.5128 13.2202C72.8929 12.8769 73.1749 12.3558 73.3589 11.6569C73.5551 10.9457 73.6532 10.0567 73.6532 8.98994C73.6532 7.92318 73.5551 7.03421 73.3589 6.32304C73.1749 5.61186 72.8929 5.08461 72.5128 4.74129C72.1327 4.3857 71.6668 4.2079 71.115 4.2079C70.5632 4.2079 70.0973 4.3857 69.7172 4.74129C69.3371 5.08461 69.0489 5.61186 68.8527 6.32304C68.6688 7.03421 68.5768 7.92318 68.5768 8.98994C68.5768 10.0567 68.6688 10.9457 68.8527 11.6569C69.0489 12.3558 69.3371 12.8769 69.7172 13.2202C70.0973 13.5635 70.5632 13.7352 71.115 13.7352Z" fill="black"/>
<path d="M77.067 18.2597V5.6793H79.1453L79.2005 7.92318L78.9798 7.81283C79.225 7.05261 79.6174 6.47018 80.1569 6.06554C80.7087 5.66091 81.3708 5.45859 82.1433 5.45859C83.0506 5.45859 83.7986 5.69156 84.3872 6.15751C84.988 6.62345 85.4294 7.24266 85.7114 8.01514C86.0057 8.78763 86.1528 9.64594 86.1528 10.5901C86.1528 11.5342 86.0057 12.3925 85.7114 13.165C85.4294 13.9375 84.988 14.5567 84.3872 15.0227C83.7986 15.4886 83.0506 15.7216 82.1433 15.7216C81.6406 15.7216 81.1746 15.6419 80.7455 15.4825C80.3286 15.3108 79.9668 15.0717 79.6603 14.7652C79.366 14.4464 79.1453 14.054 78.9982 13.5881L79.2373 13.3306V18.2597H77.067ZM81.5915 13.772C82.3149 13.772 82.879 13.5084 83.2836 12.9811C83.6883 12.4416 83.8906 11.6446 83.8906 10.5901C83.8906 9.53559 83.6883 8.74471 83.2836 8.21746C82.879 7.67795 82.3149 7.40819 81.5915 7.40819C81.1256 7.40819 80.7148 7.52468 80.3592 7.75765C80.0159 7.99062 79.74 8.34621 79.5316 8.82441C79.3354 9.29036 79.2373 9.87891 79.2373 10.5901C79.2373 11.3013 79.3354 11.896 79.5316 12.3742C79.7277 12.8401 80.0036 13.1896 80.3592 13.4225C80.7148 13.6555 81.1256 13.772 81.5915 13.772Z" fill="black"/>
<path d="M91.7921 15.7216C90.8725 15.7216 90.0633 15.5131 89.3643 15.0962C88.6777 14.6793 88.1443 14.0847 87.7642 13.3122C87.3841 12.5397 87.194 11.6323 87.194 10.5901C87.194 9.56011 87.3841 8.66501 87.7642 7.90479C88.1443 7.13231 88.6716 6.53149 89.3459 6.10233C90.0326 5.67317 90.8357 5.45859 91.7554 5.45859C92.6382 5.45859 93.4168 5.66704 94.0912 6.08394C94.7779 6.50083 95.3112 7.09552 95.6913 7.868C96.0837 8.64049 96.2799 9.56011 96.2799 10.6269V11.197H89.4379C89.4992 12.0308 89.7383 12.6684 90.1552 13.1099C90.5844 13.5513 91.1423 13.772 91.8289 13.772C92.3562 13.772 92.7915 13.6494 93.1348 13.4041C93.4904 13.1466 93.7356 12.8156 93.8705 12.4109L96.096 12.5765C95.7894 13.5574 95.2683 14.3299 94.5326 14.8939C93.7969 15.4457 92.8834 15.7216 91.7921 15.7216ZM89.4563 9.61529H93.9257C93.8644 8.86733 93.6375 8.31555 93.2451 7.95997C92.8528 7.59212 92.35 7.40819 91.737 7.40819C91.1239 7.40819 90.615 7.59825 90.2104 7.97836C89.818 8.34621 89.5667 8.89185 89.4563 9.61529Z" fill="black"/>
<path d="M97.8729 15.5009V5.6793H99.8592L99.9328 8.30942L99.7121 8.18068C99.8225 7.55533 100.031 7.04647 100.337 6.6541C100.644 6.24947 101.018 5.94906 101.459 5.75287C101.913 5.55669 102.404 5.45859 102.931 5.45859C103.654 5.45859 104.249 5.61799 104.715 5.9368C105.181 6.2556 105.53 6.69702 105.763 7.26105C105.996 7.81283 106.113 8.4443 106.113 9.15548V15.5009H103.942V9.67047C103.942 8.88572 103.795 8.29716 103.501 7.90479C103.219 7.51242 102.784 7.31623 102.195 7.31623C101.803 7.31623 101.441 7.40819 101.11 7.59212C100.791 7.77604 100.534 8.05193 100.337 8.41978C100.141 8.77537 100.043 9.21679 100.043 9.74404V15.5009H97.8729Z" fill="black"/>
<path d="M66.2225 35.9166V22.8579H68.5032V35.1809L66.9398 33.8198H74.4624V35.9166H66.2225Z" fill="black"/>
<path d="M78.9061 36.1373C78.2931 36.1373 77.7413 36.0269 77.2508 35.8062C76.7604 35.5855 76.368 35.2728 76.0737 34.8682C75.7794 34.4513 75.6323 33.9608 75.6323 33.3968C75.6323 32.563 75.8898 31.9193 76.4048 31.4656C76.932 30.9996 77.6861 30.6624 78.667 30.454L81.7386 29.8103C81.7386 29.1236 81.5914 28.6025 81.2972 28.2469C81.0152 27.8791 80.5676 27.6951 79.9545 27.6951C79.3905 27.6951 78.9552 27.83 78.6487 28.0998C78.3421 28.3695 78.1398 28.7251 78.0417 29.1665L75.7794 29.0378C75.9634 28.0936 76.417 27.3334 77.1405 26.7571C77.8762 26.1686 78.8019 25.8743 79.9177 25.8743C81.2543 25.8743 82.2536 26.2299 82.9157 26.941C83.5778 27.6522 83.9089 28.6454 83.9089 29.9206V33.5807C83.9089 33.826 83.9579 33.9976 84.056 34.0957C84.1541 34.1815 84.289 34.2245 84.4607 34.2245H84.9389V35.9166C84.8653 35.9288 84.7427 35.9411 84.571 35.9533C84.4116 35.9779 84.2461 35.9901 84.0744 35.9901C83.6085 35.9901 83.21 35.9104 82.8789 35.751C82.5601 35.5916 82.3149 35.3525 82.1432 35.0337C81.9716 34.7027 81.8796 34.298 81.8673 33.8198H82.1432C82.0819 34.2612 81.9041 34.6597 81.6098 35.0153C81.3156 35.3587 80.9355 35.6345 80.4695 35.843C80.0158 36.0392 79.4947 36.1373 78.9061 36.1373ZM79.2924 34.4452C79.8196 34.4452 80.2672 34.3532 80.635 34.1693C81.0029 33.9731 81.2788 33.7033 81.4627 33.36C81.6466 33.0044 81.7386 32.5814 81.7386 32.0909V31.4288L79.2924 31.9438C78.7651 32.0419 78.3973 32.2013 78.1888 32.422C77.9927 32.6304 77.8946 32.9125 77.8946 33.268C77.8946 33.6359 78.0172 33.924 78.2624 34.1325C78.5076 34.3409 78.851 34.4452 79.2924 34.4452Z" fill="black"/>
<path d="M91.4794 36.1373C90.7928 36.1373 90.1919 35.9779 89.6769 35.6591C89.1742 35.328 88.788 34.905 88.5182 34.39L88.463 35.9166H86.4031V22.8579H88.5734V27.4744C88.8186 27.033 89.1926 26.659 89.6953 26.3525C90.2103 26.0337 90.805 25.8743 91.4794 25.8743C92.3009 25.8743 93.0121 26.0827 93.6129 26.4996C94.2138 26.9043 94.6736 27.4928 94.9924 28.2653C95.3234 29.0255 95.489 29.939 95.489 31.0058C95.489 32.0725 95.3234 32.9922 94.9924 33.7646C94.6736 34.5249 94.2138 35.1134 93.6129 35.5303C93.0121 35.935 92.3009 36.1373 91.4794 36.1373ZM90.9644 34.1877C91.6879 34.1877 92.2458 33.9118 92.6381 33.36C93.0305 32.796 93.2267 32.0112 93.2267 31.0058C93.2267 30.0003 93.0305 29.2217 92.6381 28.6699C92.2458 28.1059 91.7001 27.8239 91.0012 27.8239C90.4985 27.8239 90.0632 27.9526 89.6953 28.2101C89.3398 28.4554 89.0639 28.8171 88.8677 29.2953C88.6715 29.7612 88.5734 30.3314 88.5734 31.0058C88.5734 31.6679 88.6715 32.2381 88.8677 32.7163C89.0761 33.1822 89.3581 33.5439 89.7137 33.8014C90.0693 34.0589 90.4862 34.1877 90.9644 34.1877Z" fill="black"/>
<path d="M100.981 36.1373C100.062 36.1373 99.289 35.9901 98.6637 35.6959C98.0383 35.4016 97.554 35.0031 97.2107 34.5003C96.8673 33.9976 96.6712 33.4397 96.6221 32.8266L98.7924 32.7347C98.8905 33.2006 99.1174 33.5746 99.4729 33.8566C99.8285 34.1264 100.337 34.2612 101 34.2612C101.613 34.2612 102.072 34.1815 102.379 34.0221C102.698 33.8505 102.857 33.5991 102.857 33.268C102.857 33.0596 102.802 32.8818 102.692 32.7347C102.594 32.5875 102.391 32.4649 102.085 32.3668C101.778 32.2565 101.324 32.14 100.724 32.0174C99.7427 31.8212 98.9702 31.5943 98.4062 31.3368C97.8421 31.0793 97.4375 30.7544 97.1923 30.362C96.9593 29.9697 96.8428 29.4915 96.8428 28.9274C96.8428 28.3511 96.99 27.8361 97.2842 27.3825C97.5785 26.9165 98.0138 26.5487 98.5901 26.2789C99.1787 26.0092 99.9021 25.8743 100.76 25.8743C101.692 25.8743 102.453 26.0275 103.041 26.3341C103.63 26.6406 104.077 27.0391 104.384 27.5296C104.703 28.0201 104.899 28.5473 104.972 29.1113L102.784 29.2217C102.722 28.9397 102.606 28.6883 102.434 28.4676C102.262 28.2469 102.036 28.0752 101.754 27.9526C101.472 27.8177 101.147 27.7503 100.779 27.7503C100.178 27.7503 99.7427 27.8668 99.4729 28.0998C99.2032 28.3327 99.0683 28.6086 99.0683 28.9274C99.0683 29.1849 99.1358 29.3995 99.2706 29.5712C99.4178 29.7306 99.6569 29.8654 99.9879 29.9758C100.319 30.0861 100.779 30.1965 101.367 30.3069C102.336 30.4908 103.09 30.7054 103.63 30.9506C104.169 31.1958 104.543 31.5024 104.752 31.8702C104.972 32.2381 105.083 32.6979 105.083 33.2497C105.083 33.8505 104.917 34.3655 104.586 34.7946C104.255 35.2238 103.783 35.5548 103.17 35.7878C102.557 36.0208 101.827 36.1373 100.981 36.1373Z" fill="black"/>
<path d="M66.2225 53.794V40.7354H68.6687L72.6231 50.1155V40.7354H74.8302V53.794H72.384L68.4296 44.4138V53.794H66.2225Z" fill="black"/>
<path d="M80.9109 54.0147C79.9913 54.0147 79.182 53.8063 78.4831 53.3894C77.7965 52.9725 77.2631 52.3778 76.883 51.6053C76.5029 50.8328 76.3128 49.9255 76.3128 48.8832C76.3128 47.8532 76.5029 46.9581 76.883 46.1979C77.2631 45.4254 77.7903 44.8246 78.4647 44.3955C79.1514 43.9663 79.9545 43.7517 80.8741 43.7517C81.757 43.7517 82.5356 43.9602 83.21 44.3771C83.8966 44.794 84.43 45.3886 84.8101 46.1611C85.2025 46.9336 85.3987 47.8532 85.3987 48.92V49.4902H78.5567C78.618 50.324 78.8571 50.9616 79.274 51.403C79.7032 51.8444 80.2611 52.0651 80.9477 52.0651C81.475 52.0651 81.9103 51.9425 82.2536 51.6973C82.6092 51.4398 82.8544 51.1087 82.9893 50.7041L85.2148 50.8696C84.9082 51.8505 84.3871 52.623 83.6514 53.187C82.9157 53.7388 82.0022 54.0147 80.9109 54.0147ZM78.5751 47.9084H83.0445C82.9831 47.1605 82.7563 46.6087 82.3639 46.2531C81.9716 45.8852 81.4688 45.7013 80.8557 45.7013C80.2427 45.7013 79.7338 45.8914 79.3292 46.2715C78.9368 46.6393 78.6854 47.185 78.5751 47.9084Z" fill="black"/>
<path d="M86.7709 56.5529V43.9724H88.8493L88.9045 46.2163L88.6838 46.106C88.929 45.3457 89.3214 44.7633 89.8609 44.3587C90.4126 43.954 91.0748 43.7517 91.8473 43.7517C92.7546 43.7517 93.5026 43.9847 94.0911 44.4506C94.692 44.9166 95.1334 45.5358 95.4154 46.3083C95.7097 47.0808 95.8568 47.9391 95.8568 48.8832C95.8568 49.8274 95.7097 50.6857 95.4154 51.4582C95.1334 52.2306 94.692 52.8499 94.0911 53.3158C93.5026 53.7817 92.7546 54.0147 91.8473 54.0147C91.3445 54.0147 90.8786 53.935 90.4494 53.7756C90.0325 53.6039 89.6708 53.3648 89.3643 53.0583C89.07 52.7395 88.8493 52.3471 88.7021 51.8812L88.9412 51.6237V56.5529H86.7709ZM91.2955 52.0651C92.0189 52.0651 92.583 51.8015 92.9876 51.2742C93.3922 50.7347 93.5945 49.9377 93.5945 48.8832C93.5945 47.8287 93.3922 47.0378 92.9876 46.5106C92.583 45.9711 92.0189 45.7013 91.2955 45.7013C90.8295 45.7013 90.4188 45.8178 90.0632 46.0508C89.7199 46.2837 89.444 46.6393 89.2355 47.1175C89.0393 47.5835 88.9412 48.172 88.9412 48.8832C88.9412 49.5944 89.0393 50.1891 89.2355 50.6673C89.4317 51.1332 89.7076 51.4827 90.0632 51.7157C90.4188 51.9486 90.8295 52.0651 91.2955 52.0651Z" fill="black"/>
<path d="M100.043 54.0147C99.43 54.0147 98.8783 53.9044 98.3878 53.6836C97.8973 53.4629 97.505 53.1503 97.2107 52.7456C96.9164 52.3287 96.7693 51.8383 96.7693 51.2742C96.7693 50.4404 97.0267 49.7967 97.5417 49.343C98.069 48.8771 98.8231 48.5399 99.804 48.3314L102.876 47.6877C102.876 47.0011 102.728 46.4799 102.434 46.1243C102.152 45.7565 101.705 45.5726 101.091 45.5726C100.527 45.5726 100.092 45.7074 99.7856 45.9772C99.4791 46.247 99.2768 46.6025 99.1787 47.044L96.9164 46.9152C97.1003 45.9711 97.554 45.2109 98.2774 44.6346C99.0131 44.046 99.9389 43.7517 101.055 43.7517C102.391 43.7517 103.391 44.1073 104.053 44.8185C104.715 45.5297 105.046 46.5228 105.046 47.7981V51.4582C105.046 51.7034 105.095 51.8751 105.193 51.9731C105.291 52.059 105.426 52.1019 105.598 52.1019H106.076V53.794C106.002 53.8063 105.88 53.8185 105.708 53.8308C105.549 53.8553 105.383 53.8676 105.211 53.8676C104.745 53.8676 104.347 53.7879 104.016 53.6285C103.697 53.4691 103.452 53.23 103.28 52.9112C103.109 52.5801 103.017 52.1755 103.004 51.6973H103.28C103.219 52.1387 103.041 52.5372 102.747 52.8928C102.453 53.2361 102.072 53.512 101.606 53.7204C101.153 53.9166 100.632 54.0147 100.043 54.0147ZM100.429 52.3226C100.957 52.3226 101.404 52.2306 101.772 52.0467C102.14 51.8505 102.416 51.5808 102.6 51.2374C102.784 50.8819 102.876 50.4588 102.876 49.9684V49.3062L100.429 49.8212C99.9021 49.9193 99.5343 50.0787 99.3258 50.2994C99.1296 50.5079 99.0315 50.7899 99.0315 51.1455C99.0315 51.5133 99.1541 51.8015 99.3994 52.0099C99.6446 52.2184 99.9879 52.3226 100.429 52.3226Z" fill="black"/>
<path d="M110.869 53.794V43.6781C110.869 43.3103 110.765 43.0221 110.556 42.8137C110.36 42.6053 110.072 42.501 109.692 42.501H107.503V40.7354H110.023C111.016 40.7354 111.764 40.9928 112.267 41.5078C112.782 42.0106 113.039 42.7647 113.039 43.7701V53.794H110.869ZM107.135 53.794V52.0283H116.258V53.794H107.135Z" fill="black"/>
<defs>
<clipPath id="clip0_190_1040">
<rect width="60.0245" height="56.7313" fill="white"/>
</clipPath>
</defs>
</svg>
